<svg width="84" height="24" viewBox="0 0 84 24" fill="none" xmlns="http://www.w3.org/2000/svg">
<path d="M6 2H2V6H6V2Z" fill="#87C6F5"/>
<path d="M22 3H8V5H22V3Z" fill="#87C6F5"/>
<path d="M22 19H8V21H22V19Z" fill="#87C6F5"/>
<path d="M8 11H22V13H8V11Z" fill="#87C6F5"/>
<path d="M2 10H6V14H2V10Z" fill="#87C6F5"/>
<path d="M6 18H2V22H6V18Z" fill="#87C6F5"/>
<path d="M46 10C47.1046 10 48 9.10457 48 8C48 6.89543 47.1046 6 46 6C44.8954 6 44 6.89543 44 8C44 9.10457 44.8954 10 46 10Z" fill="#87C6F5"/>
<path d="M52 2H32V22H52V2ZM34 4H50V15.1492L47.0829 11.5029L44.0242 14.5616L39.1041 8.54803L34 13.2268V4ZM46.9171 14.4971L50 18.3508V20H48.4739L45.297 16.1172L46.9171 14.4971ZM34 15.9399L38.8959 11.452L45.8898 20H34V15.9399Z" fill="#87C6F5"/>
<path d="M75.0208 17.8492L73.6066 16.435L79.2635 10.7782L79.9706 11.4853L81.3848 10.0711L74.3137 3L72.8995 4.41421L73.6066 5.12132L67.9497 10.7782L66.5355 9.36396L65.1213 10.7782L68.6569 14.3137L63 19.9706L64.4142 21.3848L70.0711 15.7279L73.6066 19.2635L75.0208 17.8492ZM77.8492 9.36396L72.1924 15.0208L69.364 12.1924L75.0208 6.53553L77.8492 9.36396Z" fill="#87C6F5"/>
</svg>
